<?xml version="1.0" standalone="no"?><!DOCTYPE svg PUBLIC "-//W3C//DTD SVG 1.1//EN" "http://www.w3.org/Graphics/SVG/1.1/DTD/svg11.dtd"><svg version="1.1" xmlns:xlink="http://www.w3.org/1999/xlink" width="110pt" viewBox="185 50 110 110" height="110pt" xmlns="http://www.w3.org/2000/svg"><defs xmlns="http://www.w3.org/1999/xhtml"><style type="text/css"><![CDATA[]]></style></defs><defs xmlns="http://www.w3.org/1999/xhtml"><style type="text/css"></style></defs><defs xmlns="http://www.w3.org/1999/xhtml"><style type="text/css"></style></defs>
  <g id="surface2">
    
    <path d="M 212.648438 97.449219 L 239.250000 73.199219 L 239.250000 50.851562 L 212.648438 97.449219 " style=" stroke:none;fill-rule:evenodd;fill:rgb(50, 168, 82);fill-opacity:1;"/>
    <path d="M 266.148438 97.398438 L 239.398438 50.601562 L 239.300781 50.800781 L 239.300781 73.148438 L 239.398438 73.050781 L 266.148438 97.398438 " style=" stroke:none;fill-rule:evenodd;fill:rgb(31,107,51);fill-opacity:1;"/>
    
    <path d="M 266.351562 98.101562 L 274.148438 133.250000 L 293.550781 144.351562 L 266.351562 98.101562 " style=" stroke:none;fill-rule:evenodd;fill:rgb(16,93,227);fill-opacity:1;"/>
    <path d="M 239.800781 144.500000 L 293.699219 144.550781 L 293.601562 144.351562 L 274.148438 133.250000 L 274.199219 133.398438 L 239.800781 144.500000 " style=" stroke:none;fill-rule:evenodd;fill:rgb(14,73,176);fill-opacity:1;"/>
    
    <path d="M 212.199219 98.101562 L 204.398438 133.250000 L 185.000000 144.351562 L 212.199219 98.101562 " style=" stroke:none;fill-rule:evenodd;fill:rgb(70.196078%,13.72549%,9.019608%);fill-opacity:1;"/>
    <path style=" stroke:none;fill-rule:evenodd;fill:rgb(47.843137%,8.627451%,0%);fill-opacity:1;" d="M 238.750000 144.500000 L 184.851562 144.550781 L 184.949219 144.351562 L 204.398438 133.250000 L 204.351562 133.398438 L 238.750000 144.500000 "/>
  </g>
  
</svg>