<svg xmlns="http://www.w3.org/2000/svg" viewBox="0 0 256 256" role="img" aria-label="deverse logo">
  <defs>
    <linearGradient id="boltPurple" x1="0" y1="0" x2="1" y2="1">
      <stop offset="0%" stop-color="#C084FC"/>
      <stop offset="100%" stop-color="#7C3AED"/>
    </linearGradient>
    <linearGradient id="boltGreen" x1="0" y1="0" x2="1" y2="1">
      <stop offset="0%" stop-color="#34D399"/>
      <stop offset="100%" stop-color="#059669"/>
    </linearGradient>
    <linearGradient id="boltGray" x1="0" y1="0" x2="1" y2="1">
      <stop offset="0%" stop-color="#D4D4D8"/>
      <stop offset="100%" stop-color="#71717A"/>
    </linearGradient>
  </defs>

  <g fill-rule="evenodd">
    <!-- Base Z-like hooked ribbon, then rotated 3-way -->
    <path fill="url(#boltPurple)" d="M120 30L160 30L136 72L168 72L148 108L108 108L128 72L96 72Z"/>
    <path fill="url(#boltGreen)" transform="rotate(120 128 128)" d="M120 30L160 30L136 72L168 72L148 108L108 108L128 72L96 72Z"/>
    <path fill="url(#boltGray)" transform="rotate(-120 128 128)" d="M120 30L160 30L136 72L168 72L148 108L108 108L128 72L96 72Z"/>
  </g>
</svg>
